<?xml version="1.0" encoding="utf-8" standalone="no"?>
<!DOCTYPE svg PUBLIC "-//W3C//DTD SVG 1.1//EN"
  "http://www.w3.org/Graphics/SVG/1.1/DTD/svg11.dtd">
<!-- Created with matplotlib (http://matplotlib.org/) -->
<svg height="576pt" version="1.1" viewBox="0 0 1152 576" width="1152pt" xmlns="http://www.w3.org/2000/svg" xmlns:xlink="http://www.w3.org/1999/xlink">
 <defs>
  <style type="text/css">
*{stroke-linecap:butt;stroke-linejoin:round;}
  </style>
 </defs>
 <g id="figure_1">
  <g id="patch_1">
   <path d="M 0 576 
L 1152 576 
L 1152 0 
L 0 0 
z
" style="fill:#ffffff;"/>
  </g>
  <g id="axes_1">
   <g id="patch_2">
    <path d="M 144 504 
L 1036.8 504 
L 1036.8 69.12 
L 144 69.12 
z
" style="fill:#ffffff;"/>
   </g>
   <g id="matplotlib.axis_1">
    <g id="xtick_1">
     <g id="line2d_1">
      <defs>
       <path d="M 0 0 
L 0 3.5 
" id="ma2294bae23" style="stroke:#000000;stroke-width:0.8;"/>
      </defs>
      <g>
       <use style="stroke:#000000;stroke-width:0.8;" x="144" xlink:href="#ma2294bae23" y="504"/>
      </g>
     </g>
     <g id="text_1">
      <!-- 0 -->
      <defs>
       <path d="M 31.78125 66.40625 
Q 24.171875 66.40625 20.328125 58.90625 
Q 16.5 51.421875 16.5 36.375 
Q 16.5 21.390625 20.328125 13.890625 
Q 24.171875 6.390625 31.78125 6.390625 
Q 39.453125 6.390625 43.28125 13.890625 
Q 47.125 21.390625 47.125 36.375 
Q 47.125 51.421875 43.28125 58.90625 
Q 39.453125 66.40625 31.78125 66.40625 
z
M 31.78125 74.21875 
Q 44.046875 74.21875 50.515625 64.515625 
Q 56.984375 54.828125 56.984375 36.375 
Q 56.984375 17.96875 50.515625 8.265625 
Q 44.046875 -1.421875 31.78125 -1.421875 
Q 19.53125 -1.421875 13.0625 8.265625 
Q 6.59375 17.96875 6.59375 36.375 
Q 6.59375 54.828125 13.0625 64.515625 
Q 19.53125 74.21875 31.78125 74.21875 
z
" id="DejaVuSans-30"/>
      </defs>
      <g transform="translate(140.81875 518.598438)scale(0.1 -0.1)">
       <use xlink:href="#DejaVuSans-30"/>
      </g>
     </g>
    </g>
    <g id="xtick_2">
     <g id="line2d_2">
      <g>
       <use style="stroke:#000000;stroke-width:0.8;" x="255.6" xlink:href="#ma2294bae23" y="504"/>
      </g>
     </g>
     <g id="text_2">
      <!-- 25 -->
      <defs>
       <path d="M 19.1875 8.296875 
L 53.609375 8.296875 
L 53.609375 0 
L 7.328125 0 
L 7.328125 8.296875 
Q 12.9375 14.109375 22.625 23.890625 
Q 32.328125 33.6875 34.8125 36.53125 
Q 39.546875 41.84375 41.421875 45.53125 
Q 43.3125 49.21875 43.3125 52.78125 
Q 43.3125 58.59375 39.234375 62.25 
Q 35.15625 65.921875 28.609375 65.921875 
Q 23.96875 65.921875 18.8125 64.3125 
Q 13.671875 62.703125 7.8125 59.421875 
L 7.8125 69.390625 
Q 13.765625 71.78125 18.9375 73 
Q 24.125 74.21875 28.421875 74.21875 
Q 39.75 74.21875 46.484375 68.546875 
Q 53.21875 62.890625 53.21875 53.421875 
Q 53.21875 48.921875 51.53125 44.890625 
Q 49.859375 40.875 45.40625 35.40625 
Q 44.1875 33.984375 37.640625 27.21875 
Q 31.109375 20.453125 19.1875 8.296875 
z
" id="DejaVuSans-32"/>
       <path d="M 10.796875 72.90625 
L 49.515625 72.90625 
L 49.515625 64.59375 
L 19.828125 64.59375 
L 19.828125 46.734375 
Q 21.96875 47.46875 24.109375 47.828125 
Q 26.265625 48.1875 28.421875 48.1875 
Q 40.625 48.1875 47.75 41.5 
Q 54.890625 34.8125 54.890625 23.390625 
Q 54.890625 11.625 47.5625 5.09375 
Q 40.234375 -1.421875 26.90625 -1.421875 
Q 22.3125 -1.421875 17.546875 -0.640625 
Q 12.796875 0.140625 7.71875 1.703125 
L 7.71875 11.625 
Q 12.109375 9.234375 16.796875 8.0625 
Q 21.484375 6.890625 26.703125 6.890625 
Q 35.15625 6.890625 40.078125 11.328125 
Q 45.015625 15.765625 45.015625 23.390625 
Q 45.015625 31 40.078125 35.4375 
Q 35.15625 39.890625 26.703125 39.890625 
Q 22.75 39.890625 18.8125 39.015625 
Q 14.890625 38.140625 10.796875 36.28125 
z
" id="DejaVuSans-35"/>
      </defs>
      <g transform="translate(249.2375 518.598438)scale(0.1 -0.1)">
       <use xlink:href="#DejaVuSans-32"/>
       <use x="63.623047" xlink:href="#DejaVuSans-35"/>
      </g>
     </g>
    </g>
    <g id="xtick_3">
     <g id="line2d_3">
      <g>
       <use style="stroke:#000000;stroke-width:0.8;" x="367.2" xlink:href="#ma2294bae23" y="504"/>
      </g>
     </g>
     <g id="text_3">
      <!-- 50 -->
      <g transform="translate(360.8375 518.598438)scale(0.1 -0.1)">
       <use xlink:href="#DejaVuSans-35"/>
       <use x="63.623047" xlink:href="#DejaVuSans-30"/>
      </g>
     </g>
    </g>
    <g id="xtick_4">
     <g id="line2d_4">
      <g>
       <use style="stroke:#000000;stroke-width:0.8;" x="478.8" xlink:href="#ma2294bae23" y="504"/>
      </g>
     </g>
     <g id="text_4">
      <!-- 75 -->
      <defs>
       <path d="M 8.203125 72.90625 
L 55.078125 72.90625 
L 55.078125 68.703125 
L 28.609375 0 
L 18.3125 0 
L 43.21875 64.59375 
L 8.203125 64.59375 
z
" id="DejaVuSans-37"/>
      </defs>
      <g transform="translate(472.4375 518.598438)scale(0.1 -0.1)">
       <use xlink:href="#DejaVuSans-37"/>
       <use x="63.623047" xlink:href="#DejaVuSans-35"/>
      </g>
     </g>
    </g>
    <g id="xtick_5">
     <g id="line2d_5">
      <g>
       <use style="stroke:#000000;stroke-width:0.8;" x="590.4" xlink:href="#ma2294bae23" y="504"/>
      </g>
     </g>
     <g id="text_5">
      <!-- 100 -->
      <defs>
       <path d="M 12.40625 8.296875 
L 28.515625 8.296875 
L 28.515625 63.921875 
L 10.984375 60.40625 
L 10.984375 69.390625 
L 28.421875 72.90625 
L 38.28125 72.90625 
L 38.28125 8.296875 
L 54.390625 8.296875 
L 54.390625 0 
L 12.40625 0 
z
" id="DejaVuSans-31"/>
      </defs>
      <g transform="translate(580.85625 518.598438)scale(0.1 -0.1)">
       <use xlink:href="#DejaVuSans-31"/>
       <use x="63.623047" xlink:href="#DejaVuSans-30"/>
       <use x="127.246094" xlink:href="#DejaVuSans-30"/>
      </g>
     </g>
    </g>
    <g id="xtick_6">
     <g id="line2d_6">
      <g>
       <use style="stroke:#000000;stroke-width:0.8;" x="702" xlink:href="#ma2294bae23" y="504"/>
      </g>
     </g>
     <g id="text_6">
      <!-- 125 -->
      <g transform="translate(692.45625 518.598438)scale(0.1 -0.1)">
       <use xlink:href="#DejaVuSans-31"/>
       <use x="63.623047" xlink:href="#DejaVuSans-32"/>
       <use x="127.246094" xlink:href="#DejaVuSans-35"/>
      </g>
     </g>
    </g>
    <g id="xtick_7">
     <g id="line2d_7">
      <g>
       <use style="stroke:#000000;stroke-width:0.8;" x="813.6" xlink:href="#ma2294bae23" y="504"/>
      </g>
     </g>
     <g id="text_7">
      <!-- 150 -->
      <g transform="translate(804.05625 518.598438)scale(0.1 -0.1)">
       <use xlink:href="#DejaVuSans-31"/>
       <use x="63.623047" xlink:href="#DejaVuSans-35"/>
       <use x="127.246094" xlink:href="#DejaVuSans-30"/>
      </g>
     </g>
    </g>
    <g id="xtick_8">
     <g id="line2d_8">
      <g>
       <use style="stroke:#000000;stroke-width:0.8;" x="925.2" xlink:href="#ma2294bae23" y="504"/>
      </g>
     </g>
     <g id="text_8">
      <!-- 175 -->
      <g transform="translate(915.65625 518.598438)scale(0.1 -0.1)">
       <use xlink:href="#DejaVuSans-31"/>
       <use x="63.623047" xlink:href="#DejaVuSans-37"/>
       <use x="127.246094" xlink:href="#DejaVuSans-35"/>
      </g>
     </g>
    </g>
    <g id="xtick_9">
     <g id="line2d_9">
      <g>
       <use style="stroke:#000000;stroke-width:0.8;" x="1036.8" xlink:href="#ma2294bae23" y="504"/>
      </g>
     </g>
     <g id="text_9">
      <!-- 200 -->
      <g transform="translate(1027.25625 518.598438)scale(0.1 -0.1)">
       <use xlink:href="#DejaVuSans-32"/>
       <use x="63.623047" xlink:href="#DejaVuSans-30"/>
       <use x="127.246094" xlink:href="#DejaVuSans-30"/>
      </g>
     </g>
    </g>
    <g id="text_10">
     <!-- epoch -->
     <defs>
      <path d="M 56.203125 29.59375 
L 56.203125 25.203125 
L 14.890625 25.203125 
Q 15.484375 15.921875 20.484375 11.0625 
Q 25.484375 6.203125 34.421875 6.203125 
Q 39.59375 6.203125 44.453125 7.46875 
Q 49.3125 8.734375 54.109375 11.28125 
L 54.109375 2.78125 
Q 49.265625 0.734375 44.1875 -0.34375 
Q 39.109375 -1.421875 33.890625 -1.421875 
Q 20.796875 -1.421875 13.15625 6.1875 
Q 5.515625 13.8125 5.515625 26.8125 
Q 5.515625 40.234375 12.765625 48.109375 
Q 20.015625 56 32.328125 56 
Q 43.359375 56 49.78125 48.890625 
Q 56.203125 41.796875 56.203125 29.59375 
z
M 47.21875 32.234375 
Q 47.125 39.59375 43.09375 43.984375 
Q 39.0625 48.390625 32.421875 48.390625 
Q 24.90625 48.390625 20.390625 44.140625 
Q 15.875 39.890625 15.1875 32.171875 
z
" id="DejaVuSans-65"/>
      <path d="M 18.109375 8.203125 
L 18.109375 -20.796875 
L 9.078125 -20.796875 
L 9.078125 54.6875 
L 18.109375 54.6875 
L 18.109375 46.390625 
Q 20.953125 51.265625 25.265625 53.625 
Q 29.59375 56 35.59375 56 
Q 45.5625 56 51.78125 48.09375 
Q 58.015625 40.1875 58.015625 27.296875 
Q 58.015625 14.40625 51.78125 6.484375 
Q 45.5625 -1.421875 35.59375 -1.421875 
Q 29.59375 -1.421875 25.265625 0.953125 
Q 20.953125 3.328125 18.109375 8.203125 
z
M 48.6875 27.296875 
Q 48.6875 37.203125 44.609375 42.84375 
Q 40.53125 48.484375 33.40625 48.484375 
Q 26.265625 48.484375 22.1875 42.84375 
Q 18.109375 37.203125 18.109375 27.296875 
Q 18.109375 17.390625 22.1875 11.75 
Q 26.265625 6.109375 33.40625 6.109375 
Q 40.53125 6.109375 44.609375 11.75 
Q 48.6875 17.390625 48.6875 27.296875 
z
" id="DejaVuSans-70"/>
      <path d="M 30.609375 48.390625 
Q 23.390625 48.390625 19.1875 42.75 
Q 14.984375 37.109375 14.984375 27.296875 
Q 14.984375 17.484375 19.15625 11.84375 
Q 23.34375 6.203125 30.609375 6.203125 
Q 37.796875 6.203125 41.984375 11.859375 
Q 46.1875 17.53125 46.1875 27.296875 
Q 46.1875 37.015625 41.984375 42.703125 
Q 37.796875 48.390625 30.609375 48.390625 
z
M 30.609375 56 
Q 42.328125 56 49.015625 48.375 
Q 55.71875 40.765625 55.71875 27.296875 
Q 55.71875 13.875 49.015625 6.21875 
Q 42.328125 -1.421875 30.609375 -1.421875 
Q 18.84375 -1.421875 12.171875 6.21875 
Q 5.515625 13.875 5.515625 27.296875 
Q 5.515625 40.765625 12.171875 48.375 
Q 18.84375 56 30.609375 56 
z
" id="DejaVuSans-6f"/>
      <path d="M 48.78125 52.59375 
L 48.78125 44.1875 
Q 44.96875 46.296875 41.140625 47.34375 
Q 37.3125 48.390625 33.40625 48.390625 
Q 24.65625 48.390625 19.8125 42.84375 
Q 14.984375 37.3125 14.984375 27.296875 
Q 14.984375 17.28125 19.8125 11.734375 
Q 24.65625 6.203125 33.40625 6.203125 
Q 37.3125 6.203125 41.140625 7.25 
Q 44.96875 8.296875 48.78125 10.40625 
L 48.78125 2.09375 
Q 45.015625 0.34375 40.984375 -0.53125 
Q 36.96875 -1.421875 32.421875 -1.421875 
Q 20.0625 -1.421875 12.78125 6.34375 
Q 5.515625 14.109375 5.515625 27.296875 
Q 5.515625 40.671875 12.859375 48.328125 
Q 20.21875 56 33.015625 56 
Q 37.15625 56 41.109375 55.140625 
Q 45.0625 54.296875 48.78125 52.59375 
z
" id="DejaVuSans-63"/>
      <path d="M 54.890625 33.015625 
L 54.890625 0 
L 45.90625 0 
L 45.90625 32.71875 
Q 45.90625 40.484375 42.875 44.328125 
Q 39.84375 48.1875 33.796875 48.1875 
Q 26.515625 48.1875 22.3125 43.546875 
Q 18.109375 38.921875 18.109375 30.90625 
L 18.109375 0 
L 9.078125 0 
L 9.078125 75.984375 
L 18.109375 75.984375 
L 18.109375 46.1875 
Q 21.34375 51.125 25.703125 53.5625 
Q 30.078125 56 35.796875 56 
Q 45.21875 56 50.046875 50.171875 
Q 54.890625 44.34375 54.890625 33.015625 
z
" id="DejaVuSans-68"/>
     </defs>
     <g transform="translate(575.171875 532.276562)scale(0.1 -0.1)">
      <use xlink:href="#DejaVuSans-65"/>
      <use x="61.523438" xlink:href="#DejaVuSans-70"/>
      <use x="125" xlink:href="#DejaVuSans-6f"/>
      <use x="186.181641" xlink:href="#DejaVuSans-63"/>
      <use x="241.162109" xlink:href="#DejaVuSans-68"/>
     </g>
    </g>
   </g>
   <g id="matplotlib.axis_2">
    <g id="ytick_1">
     <g id="line2d_10">
      <defs>
       <path d="M 0 0 
L -3.5 0 
" id="m4cedf06ab4" style="stroke:#000000;stroke-width:0.8;"/>
      </defs>
      <g>
       <use style="stroke:#000000;stroke-width:0.8;" x="144" xlink:href="#m4cedf06ab4" y="504"/>
      </g>
     </g>
     <g id="text_11">
      <!-- 50 -->
      <g transform="translate(124.275 507.799219)scale(0.1 -0.1)">
       <use xlink:href="#DejaVuSans-35"/>
       <use x="63.623047" xlink:href="#DejaVuSans-30"/>
      </g>
     </g>
    </g>
    <g id="ytick_2">
     <g id="line2d_11">
      <g>
       <use style="stroke:#000000;stroke-width:0.8;" x="144" xlink:href="#m4cedf06ab4" y="417.024"/>
      </g>
     </g>
     <g id="text_12">
      <!-- 60 -->
      <defs>
       <path d="M 33.015625 40.375 
Q 26.375 40.375 22.484375 35.828125 
Q 18.609375 31.296875 18.609375 23.390625 
Q 18.609375 15.53125 22.484375 10.953125 
Q 26.375 6.390625 33.015625 6.390625 
Q 39.65625 6.390625 43.53125 10.953125 
Q 47.40625 15.53125 47.40625 23.390625 
Q 47.40625 31.296875 43.53125 35.828125 
Q 39.65625 40.375 33.015625 40.375 
z
M 52.59375 71.296875 
L 52.59375 62.3125 
Q 48.875 64.0625 45.09375 64.984375 
Q 41.3125 65.921875 37.59375 65.921875 
Q 27.828125 65.921875 22.671875 59.328125 
Q 17.53125 52.734375 16.796875 39.40625 
Q 19.671875 43.65625 24.015625 45.921875 
Q 28.375 48.1875 33.59375 48.1875 
Q 44.578125 48.1875 50.953125 41.515625 
Q 57.328125 34.859375 57.328125 23.390625 
Q 57.328125 12.15625 50.6875 5.359375 
Q 44.046875 -1.421875 33.015625 -1.421875 
Q 20.359375 -1.421875 13.671875 8.265625 
Q 6.984375 17.96875 6.984375 36.375 
Q 6.984375 53.65625 15.1875 63.9375 
Q 23.390625 74.21875 37.203125 74.21875 
Q 40.921875 74.21875 44.703125 73.484375 
Q 48.484375 72.75 52.59375 71.296875 
z
" id="DejaVuSans-36"/>
      </defs>
      <g transform="translate(124.275 420.823219)scale(0.1 -0.1)">
       <use xlink:href="#DejaVuSans-36"/>
       <use x="63.623047" xlink:href="#DejaVuSans-30"/>
      </g>
     </g>
    </g>
    <g id="ytick_3">
     <g id="line2d_12">
      <g>
       <use style="stroke:#000000;stroke-width:0.8;" x="144" xlink:href="#m4cedf06ab4" y="330.048"/>
      </g>
     </g>
     <g id="text_13">
      <!-- 70 -->
      <g transform="translate(124.275 333.847219)scale(0.1 -0.1)">
       <use xlink:href="#DejaVuSans-37"/>
       <use x="63.623047" xlink:href="#DejaVuSans-30"/>
      </g>
     </g>
    </g>
    <g id="ytick_4">
     <g id="line2d_13">
      <g>
       <use style="stroke:#000000;stroke-width:0.8;" x="144" xlink:href="#m4cedf06ab4" y="243.072"/>
      </g>
     </g>
     <g id="text_14">
      <!-- 80 -->
      <defs>
       <path d="M 31.78125 34.625 
Q 24.75 34.625 20.71875 30.859375 
Q 16.703125 27.09375 16.703125 20.515625 
Q 16.703125 13.921875 20.71875 10.15625 
Q 24.75 6.390625 31.78125 6.390625 
Q 38.8125 6.390625 42.859375 10.171875 
Q 46.921875 13.96875 46.921875 20.515625 
Q 46.921875 27.09375 42.890625 30.859375 
Q 38.875 34.625 31.78125 34.625 
z
M 21.921875 38.8125 
Q 15.578125 40.375 12.03125 44.71875 
Q 8.5 49.078125 8.5 55.328125 
Q 8.5 64.0625 14.71875 69.140625 
Q 20.953125 74.21875 31.78125 74.21875 
Q 42.671875 74.21875 48.875 69.140625 
Q 55.078125 64.0625 55.078125 55.328125 
Q 55.078125 49.078125 51.53125 44.71875 
Q 48 40.375 41.703125 38.8125 
Q 48.828125 37.15625 52.796875 32.3125 
Q 56.78125 27.484375 56.78125 20.515625 
Q 56.78125 9.90625 50.3125 4.234375 
Q 43.84375 -1.421875 31.78125 -1.421875 
Q 19.734375 -1.421875 13.25 4.234375 
Q 6.78125 9.90625 6.78125 20.515625 
Q 6.78125 27.484375 10.78125 32.3125 
Q 14.796875 37.15625 21.921875 38.8125 
z
M 18.3125 54.390625 
Q 18.3125 48.734375 21.84375 45.5625 
Q 25.390625 42.390625 31.78125 42.390625 
Q 38.140625 42.390625 41.71875 45.5625 
Q 45.3125 48.734375 45.3125 54.390625 
Q 45.3125 60.0625 41.71875 63.234375 
Q 38.140625 66.40625 31.78125 66.40625 
Q 25.390625 66.40625 21.84375 63.234375 
Q 18.3125 60.0625 18.3125 54.390625 
z
" id="DejaVuSans-38"/>
      </defs>
      <g transform="translate(124.275 246.871219)scale(0.1 -0.1)">
       <use xlink:href="#DejaVuSans-38"/>
       <use x="63.623047" xlink:href="#DejaVuSans-30"/>
      </g>
     </g>
    </g>
    <g id="ytick_5">
     <g id="line2d_14">
      <g>
       <use style="stroke:#000000;stroke-width:0.8;" x="144" xlink:href="#m4cedf06ab4" y="156.096"/>
      </g>
     </g>
     <g id="text_15">
      <!-- 90 -->
      <defs>
       <path d="M 10.984375 1.515625 
L 10.984375 10.5 
Q 14.703125 8.734375 18.5 7.8125 
Q 22.3125 6.890625 25.984375 6.890625 
Q 35.75 6.890625 40.890625 13.453125 
Q 46.046875 20.015625 46.78125 33.40625 
Q 43.953125 29.203125 39.59375 26.953125 
Q 35.25 24.703125 29.984375 24.703125 
Q 19.046875 24.703125 12.671875 31.3125 
Q 6.296875 37.9375 6.296875 49.421875 
Q 6.296875 60.640625 12.9375 67.421875 
Q 19.578125 74.21875 30.609375 74.21875 
Q 43.265625 74.21875 49.921875 64.515625 
Q 56.59375 54.828125 56.59375 36.375 
Q 56.59375 19.140625 48.40625 8.859375 
Q 40.234375 -1.421875 26.421875 -1.421875 
Q 22.703125 -1.421875 18.890625 -0.6875 
Q 15.09375 0.046875 10.984375 1.515625 
z
M 30.609375 32.421875 
Q 37.25 32.421875 41.125 36.953125 
Q 45.015625 41.5 45.015625 49.421875 
Q 45.015625 57.28125 41.125 61.84375 
Q 37.25 66.40625 30.609375 66.40625 
Q 23.96875 66.40625 20.09375 61.84375 
Q 16.21875 57.28125 16.21875 49.421875 
Q 16.21875 41.5 20.09375 36.953125 
Q 23.96875 32.421875 30.609375 32.421875 
z
" id="DejaVuSans-39"/>
      </defs>
      <g transform="translate(124.275 159.895219)scale(0.1 -0.1)">
       <use xlink:href="#DejaVuSans-39"/>
       <use x="63.623047" xlink:href="#DejaVuSans-30"/>
      </g>
     </g>
    </g>
    <g id="ytick_6">
     <g id="line2d_15">
      <g>
       <use style="stroke:#000000;stroke-width:0.8;" x="144" xlink:href="#m4cedf06ab4" y="69.12"/>
      </g>
     </g>
     <g id="text_16">
      <!-- 100 -->
      <g transform="translate(117.9125 72.919219)scale(0.1 -0.1)">
       <use xlink:href="#DejaVuSans-31"/>
       <use x="63.623047" xlink:href="#DejaVuSans-30"/>
       <use x="127.246094" xlink:href="#DejaVuSans-30"/>
      </g>
     </g>
    </g>
    <g id="text_17">
     <!-- train set accuracy -->
     <defs>
      <path d="M 18.3125 70.21875 
L 18.3125 54.6875 
L 36.8125 54.6875 
L 36.8125 47.703125 
L 18.3125 47.703125 
L 18.3125 18.015625 
Q 18.3125 11.328125 20.140625 9.421875 
Q 21.96875 7.515625 27.59375 7.515625 
L 36.8125 7.515625 
L 36.8125 0 
L 27.59375 0 
Q 17.1875 0 13.234375 3.875 
Q 9.28125 7.765625 9.28125 18.015625 
L 9.28125 47.703125 
L 2.6875 47.703125 
L 2.6875 54.6875 
L 9.28125 54.6875 
L 9.28125 70.21875 
z
" id="DejaVuSans-74"/>
      <path d="M 41.109375 46.296875 
Q 39.59375 47.171875 37.8125 47.578125 
Q 36.03125 48 33.890625 48 
Q 26.265625 48 22.1875 43.046875 
Q 18.109375 38.09375 18.109375 28.8125 
L 18.109375 0 
L 9.078125 0 
L 9.078125 54.6875 
L 18.109375 54.6875 
L 18.109375 46.1875 
Q 20.953125 51.171875 25.484375 53.578125 
Q 30.03125 56 36.53125 56 
Q 37.453125 56 38.578125 55.875 
Q 39.703125 55.765625 41.0625 55.515625 
z
" id="DejaVuSans-72"/>
      <path d="M 34.28125 27.484375 
Q 23.390625 27.484375 19.1875 25 
Q 14.984375 22.515625 14.984375 16.5 
Q 14.984375 11.71875 18.140625 8.90625 
Q 21.296875 6.109375 26.703125 6.109375 
Q 34.1875 6.109375 38.703125 11.40625 
Q 43.21875 16.703125 43.21875 25.484375 
L 43.21875 27.484375 
z
M 52.203125 31.203125 
L 52.203125 0 
L 43.21875 0 
L 43.21875 8.296875 
Q 40.140625 3.328125 35.546875 0.953125 
Q 30.953125 -1.421875 24.3125 -1.421875 
Q 15.921875 -1.421875 10.953125 3.296875 
Q 6 8.015625 6 15.921875 
Q 6 25.140625 12.171875 29.828125 
Q 18.359375 34.515625 30.609375 34.515625 
L 43.21875 34.515625 
L 43.21875 35.40625 
Q 43.21875 41.609375 39.140625 45 
Q 35.0625 48.390625 27.6875 48.390625 
Q 23 48.390625 18.546875 47.265625 
Q 14.109375 46.140625 10.015625 43.890625 
L 10.015625 52.203125 
Q 14.9375 54.109375 19.578125 55.046875 
Q 24.21875 56 28.609375 56 
Q 40.484375 56 46.34375 49.84375 
Q 52.203125 43.703125 52.203125 31.203125 
z
" id="DejaVuSans-61"/>
      <path d="M 9.421875 54.6875 
L 18.40625 54.6875 
L 18.40625 0 
L 9.421875 0 
z
M 9.421875 75.984375 
L 18.40625 75.984375 
L 18.40625 64.59375 
L 9.421875 64.59375 
z
" id="DejaVuSans-69"/>
      <path d="M 54.890625 33.015625 
L 54.890625 0 
L 45.90625 0 
L 45.90625 32.71875 
Q 45.90625 40.484375 42.875 44.328125 
Q 39.84375 48.1875 33.796875 48.1875 
Q 26.515625 48.1875 22.3125 43.546875 
Q 18.109375 38.921875 18.109375 30.90625 
L 18.109375 0 
L 9.078125 0 
L 9.078125 54.6875 
L 18.109375 54.6875 
L 18.109375 46.1875 
Q 21.34375 51.125 25.703125 53.5625 
Q 30.078125 56 35.796875 56 
Q 45.21875 56 50.046875 50.171875 
Q 54.890625 44.34375 54.890625 33.015625 
z
" id="DejaVuSans-6e"/>
      <path id="DejaVuSans-20"/>
      <path d="M 44.28125 53.078125 
L 44.28125 44.578125 
Q 40.484375 46.53125 36.375 47.5 
Q 32.28125 48.484375 27.875 48.484375 
Q 21.1875 48.484375 17.84375 46.4375 
Q 14.5 44.390625 14.5 40.28125 
Q 14.5 37.15625 16.890625 35.375 
Q 19.28125 33.59375 26.515625 31.984375 
L 29.59375 31.296875 
Q 39.15625 29.25 43.1875 25.515625 
Q 47.21875 21.78125 47.21875 15.09375 
Q 47.21875 7.46875 41.1875 3.015625 
Q 35.15625 -1.421875 24.609375 -1.421875 
Q 20.21875 -1.421875 15.453125 -0.5625 
Q 10.6875 0.296875 5.421875 2 
L 5.421875 11.28125 
Q 10.40625 8.6875 15.234375 7.390625 
Q 20.0625 6.109375 24.8125 6.109375 
Q 31.15625 6.109375 34.5625 8.28125 
Q 37.984375 10.453125 37.984375 14.40625 
Q 37.984375 18.0625 35.515625 20.015625 
Q 33.0625 21.96875 24.703125 23.78125 
L 21.578125 24.515625 
Q 13.234375 26.265625 9.515625 29.90625 
Q 5.8125 33.546875 5.8125 39.890625 
Q 5.8125 47.609375 11.28125 51.796875 
Q 16.75 56 26.8125 56 
Q 31.78125 56 36.171875 55.265625 
Q 40.578125 54.546875 44.28125 53.078125 
z
" id="DejaVuSans-73"/>
      <path d="M 8.5 21.578125 
L 8.5 54.6875 
L 17.484375 54.6875 
L 17.484375 21.921875 
Q 17.484375 14.15625 20.5 10.265625 
Q 23.53125 6.390625 29.59375 6.390625 
Q 36.859375 6.390625 41.078125 11.03125 
Q 45.3125 15.671875 45.3125 23.6875 
L 45.3125 54.6875 
L 54.296875 54.6875 
L 54.296875 0 
L 45.3125 0 
L 45.3125 8.40625 
Q 42.046875 3.421875 37.71875 1 
Q 33.40625 -1.421875 27.6875 -1.421875 
Q 18.265625 -1.421875 13.375 4.4375 
Q 8.5 10.296875 8.5 21.578125 
z
M 31.109375 56 
z
" id="DejaVuSans-75"/>
      <path d="M 32.171875 -5.078125 
Q 28.375 -14.84375 24.75 -17.8125 
Q 21.140625 -20.796875 15.09375 -20.796875 
L 7.90625 -20.796875 
L 7.90625 -13.28125 
L 13.1875 -13.28125 
Q 16.890625 -13.28125 18.9375 -11.515625 
Q 21 -9.765625 23.484375 -3.21875 
L 25.09375 0.875 
L 2.984375 54.6875 
L 12.5 54.6875 
L 29.59375 11.921875 
L 46.6875 54.6875 
L 56.203125 54.6875 
z
" id="DejaVuSans-79"/>
     </defs>
     <g transform="translate(111.832812 331.576406)rotate(-90)scale(0.1 -0.1)">
      <use xlink:href="#DejaVuSans-74"/>
      <use x="39.208984" xlink:href="#DejaVuSans-72"/>
      <use x="80.322266" xlink:href="#DejaVuSans-61"/>
      <use x="141.601562" xlink:href="#DejaVuSans-69"/>
      <use x="169.384766" xlink:href="#DejaVuSans-6e"/>
      <use x="232.763672" xlink:href="#DejaVuSans-20"/>
      <use x="264.550781" xlink:href="#DejaVuSans-73"/>
      <use x="316.650391" xlink:href="#DejaVuSans-65"/>
      <use x="378.173828" xlink:href="#DejaVuSans-74"/>
      <use x="417.382812" xlink:href="#DejaVuSans-20"/>
      <use x="449.169922" xlink:href="#DejaVuSans-61"/>
      <use x="510.449219" xlink:href="#DejaVuSans-63"/>
      <use x="565.429688" xlink:href="#DejaVuSans-63"/>
      <use x="620.410156" xlink:href="#DejaVuSans-75"/>
      <use x="683.789062" xlink:href="#DejaVuSans-72"/>
      <use x="724.902344" xlink:href="#DejaVuSans-61"/>
      <use x="786.181641" xlink:href="#DejaVuSans-63"/>
      <use x="841.162109" xlink:href="#DejaVuSans-79"/>
     </g>
    </g>
   </g>
   <g id="line2d_16">
    <path clip-path="url(#p2459e395ac)" d="M 144 241.288992 
L 148.464 247.391808 
L 152.928 320.669088 
L 157.392 282.095232 
L 161.856 306.607968 
L 166.32 313.95744 
L 170.784 310.434912 
L 175.248 289.836096 
L 179.712 297.750912 
L 184.176 271.397184 
L 188.64 267.294816 
L 193.104 289.067808 
L 197.568 266.04816 
L 202.032 280.022304 
L 206.496 302.21568 
L 210.96 293.30064 
L 215.424 277.514496 
L 219.888 283.44336 
L 224.352 263.569344 
L 228.816 276.441792 
L 233.28 311.594592 
L 237.744 296.301312 
L 242.208 306.405024 
L 246.672 308.724384 
L 251.136 319.813824 
L 255.6 310.884288 
L 260.064 311.34816 
L 264.528 338.09328 
L 268.992 361.402848 
L 273.456 313.711008 
L 277.92 296.63472 
L 282.384 321.843264 
L 286.848 317.132064 
L 291.312 305.0424 
L 295.776 273.470112 
L 300.24 282.167712 
L 304.704 279.949824 
L 309.168 262.2792 
L 313.632 266.12064 
L 318.096 258.58272 
L 322.56 270.049056 
L 327.024 286.038144 
L 331.488 306.361536 
L 335.952 316.697184 
L 340.416 286.70496 
L 344.88 270.440448 
L 349.344 276.55776 
L 353.808 264.96096 
L 358.272 283.138944 
L 362.736 294.431328 
L 367.2 280.138272 
L 371.664 257.321568 
L 376.128 260.24976 
L 380.592 252.305952 
L 385.056 240.158304 
L 389.52 244.057728 
L 393.984 276.311328 
L 398.448 256.089408 
L 402.912 237.462048 
L 407.376 264.01872 
L 411.84 235.75152 
L 416.304 232.794336 
L 420.768 240.346752 
L 425.232 250.088064 
L 429.696 244.420128 
L 434.16 259.032096 
L 438.624 264.540576 
L 443.088 239.0856 
L 447.552 256.55328 
L 452.016 239.361024 
L 456.48 259.52496 
L 460.944 254.857248 
L 465.408 255.3936 
L 469.872 249.102336 
L 474.336 292.053984 
L 478.8 235.331136 
L 483.264 266.714976 
L 487.728 242.680608 
L 492.192 259.495968 
L 496.656 246.724992 
L 501.12 240.549696 
L 505.584 255.770496 
L 510.048 259.582944 
L 514.512 247.551264 
L 518.976 245.492832 
L 523.44 233.098752 
L 527.904 246.580032 
L 532.368 230.837376 
L 541.296 256.538784 
L 545.76 233.635104 
L 550.224 224.73456 
L 554.688 237.12864 
L 559.152 237.331584 
L 563.616 276.688224 
L 568.08 243.564864 
L 572.544 283.530336 
L 577.008 269.150304 
L 581.472 246.40608 
L 585.936 247.739712 
L 590.4 260.713632 
L 594.864 278.891616 
L 599.328 277.8624 
L 603.792 259.148064 
L 608.256 256.828704 
L 612.72 256.1184 
L 617.184 251.726112 
L 621.648 263.105472 
L 626.112 283.907232 
L 630.576 255.857472 
L 635.04 272.991744 
L 639.504 265.584288 
L 643.968 273.5136 
L 648.432 252.726336 
L 652.896 254.37888 
L 657.36 258.452256 
L 661.824 291.314688 
L 666.288 270.570912 
L 670.752 239.30304 
L 675.216 268.570464 
L 679.68 269.498208 
L 684.144 250.334496 
L 688.608 246.04368 
L 693.072 255.553056 
L 697.536 267.961632 
L 702 253.770048 
L 706.464 250.798368 
L 715.392 255.97344 
L 719.856 243.100992 
L 724.32 282.225696 
L 728.784 261.192 
L 733.248 275.311104 
L 737.712 269.585184 
L 742.176 270.483936 
L 746.64 249.928608 
L 751.104 253.494624 
L 755.568 232.881312 
L 760.032 272.803296 
L 764.496 298.780128 
L 768.96 247.63824 
L 773.424 258.118848 
L 777.888 282.907008 
L 782.352 256.886688 
L 786.816 271.716096 
L 791.28 333.88944 
L 795.744 256.422816 
L 800.208 257.799936 
L 804.672 247.986144 
L 809.136 281.022528 
L 813.6 275.238624 
L 818.064 293.431104 
L 822.528 267.3528 
L 826.992 263.975232 
L 831.456 280.47168 
L 835.92 284.110176 
L 840.384 257.075136 
L 849.312 268.338528 
L 853.776 285.675744 
L 858.24 316.552224 
L 862.704 335.063616 
L 867.168 303.926208 
L 871.632 274.194912 
L 876.096 256.277856 
L 880.56 253.451136 
L 885.024 275.006688 
L 889.488 283.414368 
L 893.952 248.928384 
L 898.416 316.030368 
L 902.88 261.902304 
L 907.344 276.108384 
L 911.808 251.755104 
L 916.272 292.21344 
L 920.736 299.881824 
L 925.2 265.294368 
L 929.664 264.23616 
L 934.128 282.631584 
L 938.592 291.662592 
L 943.056 288.792384 
L 947.52 288.966336 
L 951.984 276.209856 
L 956.448 268.990848 
L 960.912 304.549536 
L 965.376 309.130272 
L 969.84 263.554848 
L 974.304 289.357728 
L 978.768 275.630016 
L 983.232 251.11728 
L 987.696 254.349888 
L 992.16 308.275008 
L 996.624 284.96544 
L 1001.088 270.715872 
L 1005.552 347.559168 
L 1010.016 267.193344 
L 1014.48 284.284128 
L 1018.944 245.014464 
L 1023.408 247.826688 
L 1027.872 265.337856 
L 1032.336 275.934432 
L 1036.8 257.843424 
L 1041.264 261.48192 
L 1045.728 269.45472 
L 1050.192 240.8976 
L 1054.656 279.89184 
L 1059.12 290.76384 
L 1063.584 257.379552 
L 1068.048 248.116608 
L 1072.512 309.913056 
L 1076.976 285.748224 
L 1081.44 255.190656 
L 1085.904 263.004 
L 1090.368 258.017376 
L 1094.832 279.52944 
L 1099.296 297.7944 
L 1103.76 264.685536 
L 1108.224 267.048384 
L 1112.688 297.084096 
L 1117.152 243.187968 
L 1121.616 289.923072 
L 1126.08 244.652064 
L 1130.544 253.2192 
L 1135.008 264.23616 
L 1139.472 290.169504 
L 1143.936 267.845664 
L 1148.4 262.627104 
L 1153 258.953355 
L 1153 258.953355 
" style="fill:none;stroke:#008000;stroke-linecap:square;stroke-width:2;"/>
   </g>
   <g id="line2d_17">
    <path clip-path="url(#p2459e395ac)" d="M 144 286.603488 
L 148.464 268.019616 
L 152.928 223.024032 
L 157.392 195.88752 
L 161.856 184.986528 
L 166.32 185.218464 
L 170.784 163.63392 
L 175.248 158.34288 
L 179.712 145.383456 
L 184.176 136.23648 
L 188.64 134.409984 
L 193.104 136.077024 
L 197.568 131.902176 
L 202.032 136.337952 
L 206.496 135.72912 
L 210.96 131.394816 
L 215.424 133.91712 
L 219.888 138.715296 
L 224.352 131.003424 
L 228.816 135.207264 
L 233.28 134.308512 
L 237.744 139.903968 
L 242.208 141.353568 
L 246.672 129.901728 
L 251.136 133.438752 
L 255.6 131.916672 
L 260.064 137.004768 
L 264.528 135.192768 
L 268.992 136.874304 
L 273.456 134.482464 
L 282.384 128.104224 
L 286.848 126.219744 
L 291.312 123.016128 
L 295.776 127.437408 
L 300.24 128.742048 
L 304.704 128.234688 
L 309.168 129.771264 
L 313.632 129.234912 
L 318.096 130.394592 
L 322.56 129.756768 
L 327.024 130.336608 
L 331.488 127.886784 
L 335.952 127.379424 
L 340.416 125.79936 
L 344.88 127.669344 
L 349.344 125.813856 
L 353.808 126.727104 
L 358.272 124.074336 
L 362.736 128.002752 
L 367.2 131.52528 
L 371.664 127.930272 
L 376.128 128.321664 
L 380.592 127.843296 
L 385.056 123.523488 
L 389.52 129.002976 
L 393.984 128.017248 
L 398.448 129.872736 
L 402.912 128.147712 
L 407.376 127.046016 
L 411.84 128.04624 
L 416.304 118.957248 
L 420.768 123.364032 
L 425.232 124.973088 
L 429.696 126.132768 
L 434.16 121.639008 
L 438.624 124.465728 
L 443.088 125.770368 
L 447.552 121.870944 
L 456.48 124.13232 
L 460.944 123.798912 
L 465.408 130.554048 
L 469.872 125.523936 
L 474.336 125.567424 
L 478.8 126.52416 
L 483.264 124.987584 
L 487.728 128.249184 
L 492.192 120.377856 
L 496.656 122.90016 
L 501.12 122.10288 
L 505.584 122.073888 
L 510.048 121.059168 
L 514.512 120.769248 
L 518.976 118.11648 
L 523.44 121.972416 
L 527.904 119.1312 
L 532.368 120.43584 
L 536.832 122.813184 
L 541.296 122.218848 
L 545.76 120.406848 
L 550.224 118.754304 
L 554.688 118.319424 
L 559.152 115.188288 
L 563.616 119.78352 
L 568.08 120.029952 
L 572.544 118.812288 
L 577.008 121.81296 
L 581.472 116.66688 
L 585.936 118.174464 
L 590.4 124.262784 
L 594.864 120.769248 
L 599.328 122.059392 
L 603.792 117.870048 
L 608.256 123.175584 
L 612.72 121.334592 
L 617.184 118.957248 
L 621.648 118.101984 
L 626.112 124.842624 
L 630.576 125.741376 
L 635.04 118.98624 
L 639.504 116.246496 
L 643.968 116.246496 
L 648.432 119.464608 
L 652.896 120.79824 
L 661.824 115.086816 
L 666.288 116.768352 
L 670.752 117.97152 
L 675.216 115.173792 
L 679.68 117.551136 
L 684.144 116.782848 
L 688.608 118.536864 
L 693.072 117.565632 
L 697.536 118.565856 
L 702 115.173792 
L 706.464 118.044 
L 710.928 116.81184 
L 715.392 114.898368 
L 719.856 117.812064 
L 724.32 121.45056 
L 728.784 118.232448 
L 733.248 120.261888 
L 737.712 116.710368 
L 742.176 117.232224 
L 746.64 115.463712 
L 751.104 118.464384 
L 755.568 116.029056 
L 760.032 117.812064 
L 764.496 116.579904 
L 768.96 113.448768 
L 773.424 123.465504 
L 777.888 115.985568 
L 782.352 114.448992 
L 786.816 112.608 
L 795.744 119.899488 
L 800.208 117.087264 
L 804.672 116.203008 
L 809.136 118.203456 
L 813.6 115.115808 
L 818.064 116.5944 
L 822.528 113.289312 
L 826.992 114.49248 
L 831.456 114.56496 
L 835.92 112.144128 
L 840.384 113.071872 
L 844.848 111.984672 
L 849.312 113.738688 
L 853.776 111.651264 
L 858.24 118.000512 
L 862.704 113.956128 
L 867.168 113.028384 
L 871.632 112.332576 
L 876.096 111.114912 
L 880.56 114.028608 
L 885.024 113.100864 
L 889.488 113.898144 
L 893.952 112.042656 
L 898.416 111.042432 
L 902.88 111.694752 
L 907.344 111.08592 
L 911.808 114.34752 
L 916.272 112.260096 
L 920.736 111.607776 
L 925.2 114.579456 
L 929.664 110.520576 
L 934.128 109.244928 
L 938.592 110.462592 
L 943.056 109.476864 
L 947.52 110.230656 
L 951.984 112.289088 
L 956.448 110.317632 
L 960.912 111.984672 
L 965.376 112.303584 
L 969.84 110.955456 
L 974.304 109.462368 
L 978.768 110.781504 
L 983.232 109.969728 
L 987.696 113.013888 
L 992.16 113.11536 
L 996.624 110.419104 
L 1001.088 108.491136 
L 1005.552 110.0712 
L 1010.016 112.10064 
L 1014.48 106.925568 
L 1018.944 110.911968 
L 1023.408 109.331904 
L 1027.872 113.231328 
L 1032.336 110.36112 
L 1036.8 108.33168 
L 1041.264 109.723296 
L 1045.728 106.969056 
L 1050.192 109.621824 
L 1054.656 110.172672 
L 1059.12 109.737792 
L 1063.584 106.070304 
L 1068.048 108.578112 
L 1072.512 106.505184 
L 1076.976 108.389664 
L 1081.44 107.056032 
L 1085.904 107.519904 
L 1090.368 110.303136 
L 1094.832 109.578336 
L 1099.296 109.578336 
L 1103.76 109.404384 
L 1108.224 108.11424 
L 1112.688 109.186944 
L 1117.152 112.289088 
L 1121.616 107.157504 
L 1126.08 112.361568 
L 1130.544 108.302688 
L 1135.008 107.09952 
L 1139.472 109.012992 
L 1143.936 108.505632 
L 1148.4 107.853312 
L 1153 107.050291 
L 1153 107.050291 
" style="fill:none;stroke:#ff00ff;stroke-linecap:square;stroke-width:2;"/>
   </g>
   <g id="line2d_18">
    <path clip-path="url(#p2459e395ac)" d="M 144 287.50224 
L 148.464 209.65872 
L 152.928 188.581536 
L 157.392 173.20128 
L 161.856 160.821696 
L 166.32 153.747648 
L 170.784 144.470208 
L 175.248 138.947232 
L 179.712 134.018592 
L 184.176 130.119168 
L 188.64 127.988256 
L 193.104 126.103776 
L 202.032 120.36336 
L 206.496 120.174912 
L 210.96 115.79712 
L 215.424 115.07232 
L 219.888 113.013888 
L 224.352 110.824992 
L 228.816 107.186496 
L 233.28 109.766784 
L 237.744 106.766112 
L 242.208 106.8096 
L 246.672 103.707456 
L 251.136 103.200096 
L 255.6 103.823424 
L 260.064 101.30112 
L 264.528 99.866016 
L 268.992 99.503616 
L 273.456 100.590816 
L 277.92 99.764544 
L 282.384 98.112 
L 286.848 97.909056 
L 291.312 98.083008 
L 295.776 97.358208 
L 300.24 96.271008 
L 309.168 95.9376 
L 313.632 95.546208 
L 318.096 95.981088 
L 322.56 95.850624 
L 327.024 94.792416 
L 331.488 96.01008 
L 335.952 94.256064 
L 340.416 93.951648 
L 344.88 94.096608 
L 349.344 93.342816 
L 353.808 93.516768 
L 358.272 93.081888 
L 362.736 93.502272 
L 371.664 92.487552 
L 376.128 91.675776 
L 380.592 91.37136 
L 385.056 91.762752 
L 389.52 91.545312 
L 393.984 91.936704 
L 398.448 91.429344 
L 402.912 91.327872 
L 407.376 91.545312 
L 411.84 90.806016 
L 416.304 91.400352 
L 438.624 90.008736 
L 447.552 90.313152 
L 456.48 89.370912 
L 460.944 89.443392 
L 465.408 89.109984 
L 469.872 88.936032 
L 474.336 89.167968 
L 478.8 88.457664 
L 483.264 88.83456 
L 487.728 88.660608 
L 492.192 89.283936 
L 496.656 89.182464 
L 501.12 88.936032 
L 505.584 88.486656 
L 510.048 88.820064 
L 514.512 88.356192 
L 523.44 88.994016 
L 527.904 88.341696 
L 532.368 88.6896 
L 536.832 88.051776 
L 541.296 88.051776 
L 550.224 87.74736 
L 554.688 87.718368 
L 559.152 87.834336 
L 563.616 87.413952 
L 568.08 87.834336 
L 572.544 87.486432 
L 577.008 87.442944 
L 581.472 87.196512 
L 585.936 86.674656 
L 594.864 87.138528 
L 599.328 86.674656 
L 603.792 86.935584 
L 612.72 86.73264 
L 617.184 86.819616 
L 621.648 86.355744 
L 635.04 86.5152 
L 639.504 86.094816 
L 643.968 86.22528 
L 648.432 86.558688 
L 652.896 86.312256 
L 666.288 86.457216 
L 670.752 85.761408 
L 675.216 85.616448 
L 679.68 85.616448 
L 684.144 86.210784 
L 693.072 85.848384 
L 702 86.08032 
L 706.464 85.761408 
L 715.392 86.109312 
L 719.856 85.456992 
L 724.32 85.906368 
L 728.784 85.370016 
L 733.248 85.399008 
L 737.712 85.167072 
L 742.176 85.442496 
L 746.64 85.28304 
L 751.104 85.254048 
L 755.568 85.529472 
L 760.032 85.123584 
L 764.496 85.051104 
L 768.96 85.456992 
L 773.424 85.094592 
L 777.888 85.399008 
L 782.352 85.384512 
L 786.816 84.77568 
L 791.28 85.0656 
L 795.744 84.964128 
L 800.208 85.181568 
L 804.672 85.022112 
L 809.136 85.051104 
L 813.6 84.92064 
L 818.064 84.529248 
L 822.528 84.862656 
L 831.456 85.123584 
L 840.384 84.99312 
L 844.848 85.152576 
L 849.312 84.7032 
L 853.776 85.181568 
L 858.24 84.616224 
L 867.168 84.935136 
L 871.632 84.55824 
L 876.096 84.3408 
L 880.56 84.55824 
L 885.024 84.601728 
L 889.488 84.529248 
L 893.952 84.587232 
L 898.416 84.819168 
L 902.88 84.282816 
L 907.344 84.471264 
L 911.808 84.079872 
L 920.736 84.181344 
L 934.128 84.616224 
L 938.592 84.456768 
L 943.056 84.471264 
L 956.448 84.181344 
L 960.912 84.239328 
L 965.376 84.181344 
L 969.84 84.239328 
L 978.768 84.12336 
L 983.232 84.253824 
L 987.696 84.152352 
L 992.16 84.253824 
L 996.624 83.934912 
L 1001.088 84.036384 
L 1005.552 84.282816 
L 1010.016 83.789952 
L 1027.872 84.210336 
L 1032.336 83.949408 
L 1036.8 84.021888 
L 1041.264 84.471264 
L 1045.728 84.007392 
L 1050.192 83.818944 
L 1063.584 83.876928 
L 1068.048 83.587008 
L 1072.512 83.76096 
L 1076.976 83.413056 
L 1090.368 83.746464 
L 1094.832 83.529024 
L 1099.296 83.775456 
L 1103.76 83.456544 
L 1112.688 83.731968 
L 1117.152 83.630496 
L 1126.08 83.702976 
L 1130.544 83.514528 
L 1135.008 83.673984 
L 1139.472 83.456544 
L 1153 83.670451 
L 1153 83.670451 
" style="fill:none;stroke:#0000ff;stroke-linecap:square;stroke-width:2;"/>
   </g>
   <g id="line2d_19">
    <path clip-path="url(#p2459e395ac)" d="M 144 495.751776 
L 148.464 300.11376 
L 152.928 238.389792 
L 157.392 214.253952 
L 161.856 202.860096 
L 166.32 193.147776 
L 170.784 187.059456 
L 175.248 180.492768 
L 179.712 176.53536 
L 184.176 173.317248 
L 188.64 168.837984 
L 193.104 165.489408 
L 197.568 160.647744 
L 202.032 157.40064 
L 206.496 154.414464 
L 210.96 151.0224 
L 215.424 148.152192 
L 219.888 146.122752 
L 224.352 141.440544 
L 228.816 139.585056 
L 233.28 138.642816 
L 237.744 134.670912 
L 242.208 130.525056 
L 246.672 128.437632 
L 255.6 125.480448 
L 260.064 124.219296 
L 268.992 119.319648 
L 273.456 119.334144 
L 277.92 117.870048 
L 282.384 115.768128 
L 286.848 114.767904 
L 291.312 113.463264 
L 295.776 112.941408 
L 300.24 112.216608 
L 309.168 110.404608 
L 313.632 109.215936 
L 318.096 108.534624 
L 322.56 106.650144 
L 327.024 106.867584 
L 331.488 106.128288 
L 335.952 105.533952 
L 340.416 104.243808 
L 344.88 104.736672 
L 349.344 103.779936 
L 353.808 104.142336 
L 358.272 102.0984 
L 362.736 102.0984 
L 367.2 101.344608 
L 371.664 100.460352 
L 376.128 99.808032 
L 380.592 99.576096 
L 385.056 99.532608 
L 389.52 99.315168 
L 393.984 98.677344 
L 402.912 98.126496 
L 411.84 97.256736 
L 416.304 96.647904 
L 420.768 96.966816 
L 425.232 96.328992 
L 429.696 96.705888 
L 434.16 96.242016 
L 438.624 95.560704 
L 443.088 94.99536 
L 447.552 95.343264 
L 452.016 95.169312 
L 456.48 95.154816 
L 465.408 93.995136 
L 469.872 93.90816 
L 474.336 93.516768 
L 478.8 93.603744 
L 483.264 94.082112 
L 487.728 93.661728 
L 492.192 92.647008 
L 496.656 92.864448 
L 501.12 92.154144 
L 505.584 92.139648 
L 510.048 91.51632 
L 514.512 91.675776 
L 523.44 92.400576 
L 527.904 91.675776 
L 532.368 92.284608 
L 536.832 92.444064 
L 541.296 91.936704 
L 545.76 91.893216 
L 550.224 91.15392 
L 554.688 91.994688 
L 559.152 91.052448 
L 563.616 91.762752 
L 568.08 91.603296 
L 577.008 91.617792 
L 581.472 91.530816 
L 585.936 91.00896 
L 590.4 90.79152 
L 594.864 91.211904 
L 599.328 90.93648 
L 612.72 90.849504 
L 617.184 90.675552 
L 621.648 90.197184 
L 626.112 89.92176 
L 630.576 89.805792 
L 635.04 89.153472 
L 639.504 89.646336 
L 643.968 89.515872 
L 648.432 89.225952 
L 652.896 88.776576 
L 657.36 89.12448 
L 661.824 89.327424 
L 666.288 88.921536 
L 670.752 89.211456 
L 675.216 88.704096 
L 679.68 88.602624 
L 684.144 89.023008 
L 693.072 89.167968 
L 697.536 89.080992 
L 702 88.54464 
L 706.464 88.776576 
L 710.928 88.54464 
L 715.392 88.008288 
L 719.856 88.095264 
L 724.32 88.515648 
L 728.784 89.12448 
L 733.248 88.718592 
L 737.712 88.878048 
L 742.176 88.849056 
L 746.64 88.138752 
L 755.568 88.051776 
L 760.032 87.24 
L 764.496 87.268992 
L 773.424 87.761856 
L 777.888 88.080768 
L 782.352 88.283712 
L 786.816 88.022784 
L 791.28 88.095264 
L 800.208 87.703872 
L 804.672 87.718368 
L 809.136 87.16752 
L 813.6 86.95008 
L 818.064 87.153024 
L 822.528 86.80512 
L 826.992 87.413952 
L 831.456 86.993568 
L 844.848 87.326976 
L 849.312 87.16752 
L 853.776 87.45744 
L 858.24 87.037056 
L 862.704 87.051552 
L 871.632 86.5152 
L 876.096 86.848608 
L 880.56 86.819616 
L 885.024 86.413728 
L 889.488 86.500704 
L 893.952 87.008064 
L 898.416 86.529696 
L 902.88 86.703648 
L 907.344 86.747136 
L 911.808 86.500704 
L 925.2 86.486208 
L 929.664 87.008064 
L 934.128 86.196288 
L 938.592 86.181792 
L 943.056 86.73264 
L 951.984 86.1528 
L 960.912 86.00784 
L 965.376 85.761408 
L 969.84 85.964352 
L 974.304 85.71792 
L 978.768 86.428224 
L 983.232 86.645664 
L 987.696 86.036832 
L 992.16 85.703424 
L 996.624 85.514976 
L 1001.088 85.848384 
L 1005.552 86.37024 
L 1010.016 86.312256 
L 1014.48 85.761408 
L 1018.944 86.558688 
L 1023.408 86.58768 
L 1027.872 86.399232 
L 1032.336 85.7904 
L 1036.8 85.906368 
L 1041.264 85.906368 
L 1045.728 86.08032 
L 1050.192 86.036832 
L 1054.656 85.7904 
L 1059.12 85.746912 
L 1063.584 86.00784 
L 1068.048 85.370016 
L 1072.512 85.485984 
L 1076.976 85.746912 
L 1081.44 85.326528 
L 1085.904 85.326528 
L 1090.368 85.50048 
L 1094.832 85.13808 
L 1099.296 85.312032 
L 1103.76 84.616224 
L 1108.224 84.7032 
L 1112.688 85.239552 
L 1117.152 85.471488 
L 1126.08 85.181568 
L 1130.544 85.384512 
L 1148.4 84.819168 
L 1153 84.974727 
L 1153 84.974727 
" style="fill:none;stroke:#ff0000;stroke-linecap:square;stroke-width:2;"/>
   </g>
   <g id="patch_3">
    <path d="M 144 504 
L 144 69.12 
" style="fill:none;stroke:#000000;stroke-linecap:square;stroke-linejoin:miter;stroke-width:0.8;"/>
   </g>
   <g id="patch_4">
    <path d="M 1036.8 504 
L 1036.8 69.12 
" style="fill:none;stroke:#000000;stroke-linecap:square;stroke-linejoin:miter;stroke-width:0.8;"/>
   </g>
   <g id="patch_5">
    <path d="M 144 504 
L 1036.8 504 
" style="fill:none;stroke:#000000;stroke-linecap:square;stroke-linejoin:miter;stroke-width:0.8;"/>
   </g>
   <g id="patch_6">
    <path d="M 144 69.12 
L 1036.8 69.12 
" style="fill:none;stroke:#000000;stroke-linecap:square;stroke-linejoin:miter;stroke-width:0.8;"/>
   </g>
   <g id="legend_1">
    <g id="patch_7">
     <path d="M 945.023438 499 
L 1029.8 499 
Q 1031.8 499 1031.8 497 
L 1031.8 439.2875 
Q 1031.8 437.2875 1029.8 437.2875 
L 945.023438 437.2875 
Q 943.023438 437.2875 943.023438 439.2875 
L 943.023438 497 
Q 943.023438 499 945.023438 499 
z
" style="fill:#ffffff;opacity:0.8;stroke:#cccccc;stroke-linejoin:miter;"/>
    </g>
    <g id="line2d_20">
     <path d="M 947.023438 445.385938 
L 967.023438 445.385938 
" style="fill:none;stroke:#008000;stroke-linecap:square;stroke-width:2;"/>
    </g>
    <g id="line2d_21"/>
    <g id="text_18">
     <!-- GA -->
     <defs>
      <path d="M 59.515625 10.40625 
L 59.515625 29.984375 
L 43.40625 29.984375 
L 43.40625 38.09375 
L 69.28125 38.09375 
L 69.28125 6.78125 
Q 63.578125 2.734375 56.6875 0.65625 
Q 49.8125 -1.421875 42 -1.421875 
Q 24.90625 -1.421875 15.25 8.5625 
Q 5.609375 18.5625 5.609375 36.375 
Q 5.609375 54.25 15.25 64.234375 
Q 24.90625 74.21875 42 74.21875 
Q 49.125 74.21875 55.546875 72.453125 
Q 61.96875 70.703125 67.390625 67.28125 
L 67.390625 56.78125 
Q 61.921875 61.421875 55.765625 63.765625 
Q 49.609375 66.109375 42.828125 66.109375 
Q 29.4375 66.109375 22.71875 58.640625 
Q 16.015625 51.171875 16.015625 36.375 
Q 16.015625 21.625 22.71875 14.15625 
Q 29.4375 6.6875 42.828125 6.6875 
Q 48.046875 6.6875 52.140625 7.59375 
Q 56.25 8.5 59.515625 10.40625 
z
" id="DejaVuSans-47"/>
      <path d="M 34.1875 63.1875 
L 20.796875 26.90625 
L 47.609375 26.90625 
z
M 28.609375 72.90625 
L 39.796875 72.90625 
L 67.578125 0 
L 57.328125 0 
L 50.6875 18.703125 
L 17.828125 18.703125 
L 11.1875 0 
L 0.78125 0 
z
" id="DejaVuSans-41"/>
     </defs>
     <g transform="translate(975.023438 448.885938)scale(0.1 -0.1)">
      <use xlink:href="#DejaVuSans-47"/>
      <use x="77.490234" xlink:href="#DejaVuSans-41"/>
     </g>
    </g>
    <g id="line2d_22">
     <path d="M 947.023438 460.064062 
L 967.023438 460.064062 
" style="fill:none;stroke:#ff00ff;stroke-linecap:square;stroke-width:2;"/>
    </g>
    <g id="line2d_23"/>
    <g id="text_19">
     <!-- OpenAI-ES -->
     <defs>
      <path d="M 39.40625 66.21875 
Q 28.65625 66.21875 22.328125 58.203125 
Q 16.015625 50.203125 16.015625 36.375 
Q 16.015625 22.609375 22.328125 14.59375 
Q 28.65625 6.59375 39.40625 6.59375 
Q 50.140625 6.59375 56.421875 14.59375 
Q 62.703125 22.609375 62.703125 36.375 
Q 62.703125 50.203125 56.421875 58.203125 
Q 50.140625 66.21875 39.40625 66.21875 
z
M 39.40625 74.21875 
Q 54.734375 74.21875 63.90625 63.9375 
Q 73.09375 53.65625 73.09375 36.375 
Q 73.09375 19.140625 63.90625 8.859375 
Q 54.734375 -1.421875 39.40625 -1.421875 
Q 24.03125 -1.421875 14.8125 8.828125 
Q 5.609375 19.09375 5.609375 36.375 
Q 5.609375 53.65625 14.8125 63.9375 
Q 24.03125 74.21875 39.40625 74.21875 
z
" id="DejaVuSans-4f"/>
      <path d="M 9.8125 72.90625 
L 19.671875 72.90625 
L 19.671875 0 
L 9.8125 0 
z
" id="DejaVuSans-49"/>
      <path d="M 4.890625 31.390625 
L 31.203125 31.390625 
L 31.203125 23.390625 
L 4.890625 23.390625 
z
" id="DejaVuSans-2d"/>
      <path d="M 9.8125 72.90625 
L 55.90625 72.90625 
L 55.90625 64.59375 
L 19.671875 64.59375 
L 19.671875 43.015625 
L 54.390625 43.015625 
L 54.390625 34.71875 
L 19.671875 34.71875 
L 19.671875 8.296875 
L 56.78125 8.296875 
L 56.78125 0 
L 9.8125 0 
z
" id="DejaVuSans-45"/>
      <path d="M 53.515625 70.515625 
L 53.515625 60.890625 
Q 47.90625 63.578125 42.921875 64.890625 
Q 37.9375 66.21875 33.296875 66.21875 
Q 25.25 66.21875 20.875 63.09375 
Q 16.5 59.96875 16.5 54.203125 
Q 16.5 49.359375 19.40625 46.890625 
Q 22.3125 44.4375 30.421875 42.921875 
L 36.375 41.703125 
Q 47.40625 39.59375 52.65625 34.296875 
Q 57.90625 29 57.90625 20.125 
Q 57.90625 9.515625 50.796875 4.046875 
Q 43.703125 -1.421875 29.984375 -1.421875 
Q 24.8125 -1.421875 18.96875 -0.25 
Q 13.140625 0.921875 6.890625 3.21875 
L 6.890625 13.375 
Q 12.890625 10.015625 18.65625 8.296875 
Q 24.421875 6.59375 29.984375 6.59375 
Q 38.421875 6.59375 43.015625 9.90625 
Q 47.609375 13.234375 47.609375 19.390625 
Q 47.609375 24.75 44.3125 27.78125 
Q 41.015625 30.8125 33.5 32.328125 
L 27.484375 33.5 
Q 16.453125 35.6875 11.515625 40.375 
Q 6.59375 45.0625 6.59375 53.421875 
Q 6.59375 63.09375 13.40625 68.65625 
Q 20.21875 74.21875 32.171875 74.21875 
Q 37.3125 74.21875 42.625 73.28125 
Q 47.953125 72.359375 53.515625 70.515625 
z
" id="DejaVuSans-53"/>
     </defs>
     <g transform="translate(975.023438 463.564062)scale(0.1 -0.1)">
      <use xlink:href="#DejaVuSans-4f"/>
      <use x="78.710938" xlink:href="#DejaVuSans-70"/>
      <use x="142.1875" xlink:href="#DejaVuSans-65"/>
      <use x="203.710938" xlink:href="#DejaVuSans-6e"/>
      <use x="267.089844" xlink:href="#DejaVuSans-41"/>
      <use x="335.498047" xlink:href="#DejaVuSans-49"/>
      <use x="364.990234" xlink:href="#DejaVuSans-2d"/>
      <use x="401.074219" xlink:href="#DejaVuSans-45"/>
      <use x="464.257812" xlink:href="#DejaVuSans-53"/>
     </g>
    </g>
    <g id="line2d_24">
     <path d="M 947.023438 474.742188 
L 967.023438 474.742188 
" style="fill:none;stroke:#0000ff;stroke-linecap:square;stroke-width:2;"/>
    </g>
    <g id="line2d_25"/>
    <g id="text_20">
     <!-- PEPG -->
     <defs>
      <path d="M 19.671875 64.796875 
L 19.671875 37.40625 
L 32.078125 37.40625 
Q 38.96875 37.40625 42.71875 40.96875 
Q 46.484375 44.53125 46.484375 51.125 
Q 46.484375 57.671875 42.71875 61.234375 
Q 38.96875 64.796875 32.078125 64.796875 
z
M 9.8125 72.90625 
L 32.078125 72.90625 
Q 44.34375 72.90625 50.609375 67.359375 
Q 56.890625 61.8125 56.890625 51.125 
Q 56.890625 40.328125 50.609375 34.8125 
Q 44.34375 29.296875 32.078125 29.296875 
L 19.671875 29.296875 
L 19.671875 0 
L 9.8125 0 
z
" id="DejaVuSans-50"/>
     </defs>
     <g transform="translate(975.023438 478.242188)scale(0.1 -0.1)">
      <use xlink:href="#DejaVuSans-50"/>
      <use x="60.302734" xlink:href="#DejaVuSans-45"/>
      <use x="123.486328" xlink:href="#DejaVuSans-50"/>
      <use x="183.789062" xlink:href="#DejaVuSans-47"/>
     </g>
    </g>
    <g id="line2d_26">
     <path d="M 947.023438 489.420313 
L 967.023438 489.420313 
" style="fill:none;stroke:#ff0000;stroke-linecap:square;stroke-width:2;"/>
    </g>
    <g id="line2d_27"/>
    <g id="text_21">
     <!-- CMA-ES -->
     <defs>
      <path d="M 64.40625 67.28125 
L 64.40625 56.890625 
Q 59.421875 61.53125 53.78125 63.8125 
Q 48.140625 66.109375 41.796875 66.109375 
Q 29.296875 66.109375 22.65625 58.46875 
Q 16.015625 50.828125 16.015625 36.375 
Q 16.015625 21.96875 22.65625 14.328125 
Q 29.296875 6.6875 41.796875 6.6875 
Q 48.140625 6.6875 53.78125 8.984375 
Q 59.421875 11.28125 64.40625 15.921875 
L 64.40625 5.609375 
Q 59.234375 2.09375 53.4375 0.328125 
Q 47.65625 -1.421875 41.21875 -1.421875 
Q 24.65625 -1.421875 15.125 8.703125 
Q 5.609375 18.84375 5.609375 36.375 
Q 5.609375 53.953125 15.125 64.078125 
Q 24.65625 74.21875 41.21875 74.21875 
Q 47.75 74.21875 53.53125 72.484375 
Q 59.328125 70.75 64.40625 67.28125 
z
" id="DejaVuSans-43"/>
      <path d="M 9.8125 72.90625 
L 24.515625 72.90625 
L 43.109375 23.296875 
L 61.8125 72.90625 
L 76.515625 72.90625 
L 76.515625 0 
L 66.890625 0 
L 66.890625 64.015625 
L 48.09375 14.015625 
L 38.1875 14.015625 
L 19.390625 64.015625 
L 19.390625 0 
L 9.8125 0 
z
" id="DejaVuSans-4d"/>
     </defs>
     <g transform="translate(975.023438 492.920313)scale(0.1 -0.1)">
      <use xlink:href="#DejaVuSans-43"/>
      <use x="69.824219" xlink:href="#DejaVuSans-4d"/>
      <use x="156.103516" xlink:href="#DejaVuSans-41"/>
      <use x="224.480469" xlink:href="#DejaVuSans-2d"/>
      <use x="260.564453" xlink:href="#DejaVuSans-45"/>
      <use x="323.748047" xlink:href="#DejaVuSans-53"/>
     </g>
    </g>
   </g>
  </g>
 </g>
 <defs>
  <clipPath id="p2459e395ac">
   <rect height="434.88" width="892.8" x="144" y="69.12"/>
  </clipPath>
 </defs>
</svg>
